<?xml version="1.0" encoding="UTF-8" standalone="no"?>
<!-- Created with Inkscape (http://www.inkscape.org/) -->

<svg
   xmlns:dc="http://purl.org/dc/elements/1.1/"
   xmlns:cc="http://creativecommons.org/ns#"
   xmlns:rdf="http://www.w3.org/1999/02/22-rdf-syntax-ns#"
   xmlns:svg="http://www.w3.org/2000/svg"
   xmlns="http://www.w3.org/2000/svg"
   xmlns:sodipodi="http://sodipodi.sourceforge.net/DTD/sodipodi-0.dtd"
   xmlns:inkscape="http://www.inkscape.org/namespaces/inkscape"
   width="1050mm"
   height="1600mm"
   viewBox="0 0 1050 1600"
   version="1.1"
   id="svg4148"
   inkscape:version="0.92.2 (5c3e80d, 2017-08-06)"
   sodipodi:docname="cover.svg"
   inkscape:export-filename="/home/lxsameer/cover.png"
   inkscape:export-xdpi="101.6"
   inkscape:export-ydpi="101.6">
  <defs
     id="defs4142">
    <mask
       id="id4">
      <linearGradient
         id="id5"
         gradientUnits="userSpaceOnUse"
         x1="693.58698"
         y1="1731.96"
         x2="693.58698"
         y2="1951.71">
        <stop
           offset="0"
           style="stop-opacity:1; stop-color:white"
           id="stop20" />
        <stop
           offset="1"
           style="stop-opacity:0; stop-color:white"
           id="stop22" />
      </linearGradient>
      <rect
         style="fill:url(#id5)"
         x="593"
         y="1762"
         width="212"
         height="244"
         id="rect25" />
    </mask>
    <linearGradient
       id="linearGradient4110"
       gradientUnits="userSpaceOnUse"
       x1="693.58698"
       y1="1731.96"
       x2="693.58698"
       y2="1951.71">
      <stop
         offset="0"
         style="stop-opacity:1; stop-color:white"
         id="stop4106" />
      <stop
         offset="1"
         style="stop-opacity:0; stop-color:white"
         id="stop4108" />
    </linearGradient>
  </defs>
  <sodipodi:namedview
     id="base"
     pagecolor="#ffffff"
     bordercolor="#666666"
     borderopacity="1.0"
     inkscape:pageopacity="0.0"
     inkscape:pageshadow="2"
     inkscape:zoom="0.0875"
     inkscape:cx="3155.6746"
     inkscape:cy="1804.3099"
     inkscape:document-units="mm"
     inkscape:current-layer="g4091"
     showgrid="false"
     inkscape:window-width="1920"
     inkscape:window-height="1042"
     inkscape:window-x="0"
     inkscape:window-y="38"
     inkscape:window-maximized="0" />
  <metadata
     id="metadata4145">
    <rdf:RDF>
      <cc:Work
         rdf:about="">
        <dc:format>image/svg+xml</dc:format>
        <dc:type
           rdf:resource="http://purl.org/dc/dcmitype/StillImage" />
        <dc:title></dc:title>
      </cc:Work>
    </rdf:RDF>
  </metadata>
  <g
     inkscape:label="Layer 1"
     inkscape:groupmode="layer"
     id="layer1"
     transform="translate(0,1303)">
    <g
       style="clip-rule:evenodd;fill-rule:evenodd;image-rendering:optimizeQuality;shape-rendering:geometricPrecision;text-rendering:geometricPrecision"
       id="g4091"
       transform="matrix(0.0649046,0,0,0.0649046,3.5137409,114.04618)">
      <rect
         style="fill:#e29400;fill-opacity:1;stroke-width:6.34746981"
         id="rect872"
         width="18216.113"
         height="11973.251"
         x="-776.25909"
         y="-8595.376" />
      <rect
         style="fill:#3d1201;fill-opacity:1;stroke-width:5.01154375"
         id="rect870"
         width="25437.334"
         height="21686.959"
         x="-3781.219"
         y="-26904.666" />
      <ellipse
         style="fill:#ffffff;fill-opacity:1;stroke-width:4.07649612"
         id="path874"
         cx="8034.6577"
         cy="-7151.1323"
         rx="5019.9136"
         ry="4938.3838" />
      <g
         id="g4258"
         transform="matrix(9.3753426,0,0,9.3753426,1471.9181,-27632.476)">
        <g
           id="g4381">
          <path
             id="path159"
             d="m 637,2175 c -2,-1 -4,-1 -6,-2 -6,-3 -10,-9 -13,-15 -2,-5 -1,-9 -2,-14 -1,-5 -3,-10 -5,-15 -4,-11 -10,-21 -15,-31 -4,-9 -9,-19 -13,-29 -5,-13 -9,-26 -10,-40 -1,-8 -1,-17 0,-25 2,-15 -1,-29 3,-44 5,-18 16,-20 15,-42 -1,-36 8,-50 33,-71 7,-7 17,-19 0,-41 10,-1 22,2 30,6 7,-14 18,-25 33,-34 7,-5 24,-15 29,-23 2,-4 1,-8 0,-12 l -8,-34 28,21 c 17,13 25,33 22,54 -1,13 -7,24 -16,33 -1,1 -2,2 -4,3 27,10 51,32 46,69 0,2 -1,4 -2,7 l 6,-5 8,8 c 5,6 10,12 13,18 l 4,-11 c 9,14 25,57 5,75 -5,4 -4,21 -4,27 1,2 1,4 1,7 v 0 c 0,5 0,10 -1,14 -1,14 -5,27 -10,40 -4,10 -9,20 -14,29 -4,10 -10,20 -14,31 -2,5 -4,10 -5,15 -1,5 0,9 -2,14 -3,6 -7,12 -13,15 -2,1 -4,1 -6,2 -1,3 -1,6 -2,10 -1,4 -1,8 -2,12 0,6 0,12 0,19 0,6 0,13 0,19 -1,6 -2,11 -4,17 -1,6 -4,12 -7,18 -3,5 -8,10 -12,14 -5,4 -10,8 -15,10 -4,2 -8,3 -12,3 l -3,1 -2,-1 c -4,0 -8,-1 -12,-3 -5,-2 -10,-6 -15,-10 -4,-4 -9,-9 -12,-14 -3,-6 -6,-12 -7,-18 -2,-6 -4,-11 -4,-17 0,-6 0,-13 0,-19 0,-7 0,-13 0,-19 -1,-4 -1,-8 -2,-12 -1,-4 -1,-7 -2,-10 z"
             class="fil1"
             inkscape:connector-curvature="0"
             style="fill:#3d1201" />
          <path
             id="path161"
             d="m 585,2004 c -1,7 -1,16 0,24 1,13 5,26 10,36 4,11 7,19 13,29 5,10 11,22 15,31 3,9 5,14 5,19 1,4 1,8 2,11 1,3 4,6 7,8 3,1 6,1 7,1 1,0 1,0 2,1 0,1 1,2 2,6 1,3 2,8 3,12 1,5 2,8 2,14 0,5 1,13 1,20 -1,7 -1,13 -1,18 1,5 2,9 3,14 2,5 4,11 7,15 2,5 6,9 10,12 3,3 7,6 11,8 3,1 6,2 9,2 4,0 7,-1 10,-2 4,-2 8,-5 11,-8 4,-3 8,-7 10,-12 3,-4 5,-10 7,-15 1,-5 2,-9 3,-14 0,-5 0,-11 -1,-18 0,-7 1,-15 1,-20 0,-6 1,-9 2,-14 1,-4 2,-9 3,-12 1,-4 2,-5 2,-6 1,-1 1,-1 2,-1 1,0 4,0 7,-1 3,-2 6,-5 7,-8 1,-3 1,-7 2,-11 0,-5 2,-10 5,-19 4,-9 10,-21 15,-31 5,-10 9,-18 13,-29 5,-10 9,-23 10,-36 0,-4 1,-9 0,-13 v 0 0 0 c 0,-2 0,-4 0,-7 -1,-20 1,-30 8,-36 4,-4 6,-18 4,-24 -1,5 -5,9 -10,9 -8,1 -14,-4 -11,-13 3,-11 14,-14 -6,-37 7,13 -7,23 -17,20 -18,-6 0,-29 2,-40 2,-15 -2,-31 -22,-44 12,21 -30,26 -35,-4 -4,-24 28,-25 31,-56 2,-17 -4,-33 -18,-43 11,43 -52,37 -68,90 -3,-3 -8,-6 -13,-7 14,16 12,36 6,47 -9,16 -27,17 -20,-9 -34,27 -12,53 -22,70 -2,-5 -4,-9 -7,-13 0,17 -5,25 -9,32 -14,21 -7,32 -10,54 z m 27,8 c 2,0 5,-1 7,-3 2,0 4,0 7,0 2,0 5,1 7,2 1,0 2,0 2,0 5,-7 7,-13 7,-21 2,12 1,11 -2,23 0,1 0,1 0,2 0,1 -1,5 -1,8 0,3 0,6 0,10 1,3 1,8 3,12 2,4 4,8 7,11 3,3 6,7 8,10 2,3 3,6 3,9 0,2 -1,5 -2,9 0,4 -1,9 -3,12 -2,3 -5,3 -7,4 -2,0 -3,0 -5,0 -1,0 -3,0 -4,0 -2,-1 -4,-2 -8,-6 -4,-4 -10,-12 -13,-18 -4,-7 -5,-12 -7,-18 -2,-7 -4,-15 -6,-21 -1,-6 -2,-11 -1,-15 1,-4 2,-7 5,-9 1,0 2,-1 3,-1 z m 91,184 c -1,2 -2,4 -2,6 -1,2 -2,4 -2,6 -1,3 -1,6 -1,8 0,2 0,4 0,6 0,2 1,5 1,7 0,2 -1,5 -1,8 -1,3 -2,6 -1,9 0,2 1,4 2,3 2,0 2,-1 4,-4 1,-3 2,-7 3,-10 1,-3 1,-6 2,-8 0,-1 1,-2 1,-4 2,6 1,9 1,17 2,-12 3,-16 0,-28 -1,-3 -2,-4 -2,-6 -1,-2 -1,-4 -1,-6 -1,-2 -1,-4 -1,-5 0,-1 0,-2 -1,-2 0,0 -1,1 -2,3 z m -19,0 c 1,2 2,4 2,6 1,2 2,4 2,6 1,3 1,6 1,8 0,2 0,4 0,6 0,2 -1,5 -1,7 0,2 1,5 1,8 1,3 2,6 1,9 0,2 -1,4 -2,3 -2,0 -3,-1 -4,-4 -1,-3 -2,-7 -3,-10 -1,-3 -1,-6 -2,-8 0,-1 -1,-2 -1,-4 -2,6 -1,9 -1,17 -2,-12 -3,-16 0,-29 1,-2 2,-4 2,-5 1,-2 1,-4 1,-6 1,-2 1,-4 1,-5 0,-1 0,-2 1,-2 0,0 1,1 2,3 z m 45,-112 c 0,4 1,9 3,12 2,3 4,3 7,4 2,0 3,0 5,0 1,0 3,0 4,0 2,-1 4,-2 8,-6 4,-4 10,-12 13,-18 4,-7 5,-12 7,-18 2,-7 4,-15 6,-21 1,-6 2,-11 1,-15 -1,-4 -2,-7 -5,-9 -2,-2 -6,-3 -9,-3 -3,-1 -5,-1 -8,-1 -2,0 -5,1 -7,2 -1,0 -2,0 -2,0 -5,-7 -7,-13 -7,-21 -2,12 -2,11 2,23 0,1 0,1 0,2 0,1 1,5 1,8 0,3 0,6 0,10 -1,3 -1,8 -3,12 -2,4 -4,8 -7,11 -3,3 -6,7 -8,10 -2,3 -3,6 -3,9 0,2 1,5 2,9 z"
             class="fil9"
             inkscape:connector-curvature="0"
             style="fill:#ffffff" />
          <path
             id="path163"
             mask="url(#id4)"
             d="m 793,2004 c 0,-13 1,-29 10,-38 -13,1 -22,-11 -18,-24 1,-5 3,-8 5,-12 0,0 0,0 0,0 -6,5 -15,8 -23,5 -6,-2 -10,-5 -12,-11 -4,-8 0,-17 3,-25 1,-3 5,-10 5,-13 2,-10 -1,-18 -6,-25 -6,8 -18,9 -27,7 -13,-4 -21,-14 -24,-27 -1,-7 0,-13 3,-19 9,-16 26,-20 29,-40 0,-7 0,-13 -3,-19 0,1 0,2 -1,2 -7,14 -24,22 -36,30 -14,10 -25,20 -30,38 l -2,10 c 1,10 0,22 -6,31 -5,9 -16,20 -28,15 -3,-2 -5,-4 -7,-6 -2,4 -3,9 -3,15 0,10 3,22 -1,32 0,2 -1,4 -2,5 l -8,15 -3,-6 c -2,5 -5,9 -8,14 -1,2 -3,5 -3,7 -2,5 -4,16 -3,22 7,-1 14,-1 20,-4 20,-7 19,-9 43,-13 10,-1 27,-2 38,-2 3,0 7,-3 13,0 3,1 44,4 53,7 18,7 10,26 22,27 4,0 7,1 10,2 z"
             style="fill:#ffffff"
             class="fil9"
             inkscape:connector-curvature="0" />
          <path
             id="path165"
             d="m 618,2084 c -5,-10 -9,-18 -13,-28 -4,-11 -8,-23 -9,-37 -1,-8 -1,-16 0,-24 1,-3 1,-6 1,-8 -1,0 -2,0 -3,0 -1,-6 1,-17 3,-22 0,0 0,-1 0,-2 1,-6 3,-13 8,-21 2,-4 5,-7 6,-11 -2,-5 -5,-9 -7,-13 0,17 -5,25 -9,32 -14,21 -7,32 -10,54 -1,7 -1,16 0,24 1,13 5,26 10,36 4,11 7,19 13,29 5,10 11,22 15,31 3,9 5,14 5,19 1,4 1,8 2,11 1,3 4,6 7,8 3,1 6,1 7,1 1,0 1,0 2,1 0,1 1,2 2,6 1,3 2,8 3,12 1,5 2,8 2,14 0,5 1,13 1,20 -1,7 -1,13 -1,18 1,5 2,9 3,14 2,5 4,11 7,15 2,5 6,9 10,12 3,3 7,6 11,8 3,1 6,2 9,2 4,0 7,-1 10,-2 4,-2 8,-5 11,-8 1,-1 2,-2 3,-3 -1,1 -2,2 -3,2 -4,1 -7,2 -10,3 -3,-1 -6,-2 -9,-3 -4,-2 -8,-4 -12,-8 -3,-3 -7,-7 -10,-11 -2,-5 -4,-11 -6,-15 -2,-5 -3,-9 -3,-14 0,-5 0,-12 0,-19 0,-7 0,-14 0,-20 -1,-5 -1,-9 -2,-13 -1,-5 -2,-10 -3,-13 -1,-3 -2,-5 -2,-6 -1,-1 -1,-1 -2,-1 -2,0 -5,0 -8,-1 -2,-1 -5,-5 -6,-8 -2,-3 -2,-6 -2,-11 -1,-4 -2,-10 -6,-19 -4,-9 -10,-21 -15,-31 z"
             class="fil11"
             inkscape:connector-curvature="0"
             style="fill:#e6e6e6" />
          <path
             id="path167"
             d="m 604,2022 c -1,4 0,9 1,15 2,6 4,14 6,21 2,6 3,11 7,18 3,6 9,14 13,18 4,4 6,5 8,6 1,0 3,0 4,0 2,0 3,0 5,0 1,0 2,0 3,-1 -2,0 -4,-2 -7,-5 -4,-4 -10,-12 -13,-18 -4,-7 -5,-12 -7,-18 -2,-7 -5,-15 -6,-21 -2,-6 -2,-11 -1,-15 0,-4 2,-7 5,-9 1,0 2,-1 3,-1 2,0 4,-1 6,-2 -2,0 -4,-1 -5,-1 -3,0 -5,0 -7,0 -2,2 -5,3 -7,3 -1,0 -2,1 -3,1 -3,2 -4,5 -5,9 z"
             class="fil5"
             inkscape:connector-curvature="0"
             style="fill:#260b00" />
          <path
             id="path169"
             d="m 738,2056 c -3,3 -6,7 -8,10 -2,3 -3,6 -3,9 0,2 1,5 2,9 0,4 1,9 3,12 2,3 4,3 7,4 2,0 3,0 5,0 1,0 3,0 4,0 1,0 1,-1 1,-1 -1,0 -3,-1 -4,-3 -2,-3 -3,-8 -4,-12 0,-4 -1,-7 -1,-9 0,-3 1,-6 3,-9 2,-3 5,-7 8,-10 3,-3 5,-7 7,-11 1,-4 2,-9 2,-12 1,-4 1,-7 1,-10 -1,-3 -1,-7 -1,-8 v -2 c -1,-1 -1,-2 -1,-3 -2,0 -4,1 -5,1 h -2 c -5,-7 -7,-13 -7,-21 -2,12 -2,11 2,23 v 2 c 0,1 1,5 1,8 0,3 0,6 0,10 -1,3 -1,8 -3,12 -2,4 -4,8 -7,11 z"
             class="fil5"
             inkscape:connector-curvature="0"
             style="fill:#260b00" />
          <path
             id="path171"
             d="m 677,2211 c -3,13 -2,17 0,29 0,-8 -1,-11 1,-17 0,1 0,2 1,3 0,-3 1,-7 2,-12 1,-3 2,-4 2,-6 1,-2 1,-4 1,-6 1,-2 1,-3 1,-4 -1,-1 -1,-1 -1,-2 -1,-2 -2,-3 -2,-3 -1,0 -1,1 -1,2 0,1 0,3 -1,5 0,2 0,4 -1,6 0,1 -1,3 -2,5 z"
             class="fil5"
             inkscape:connector-curvature="0"
             style="fill:#260b00" />
          <path
             id="path173"
             d="m 699,2208 c -1,3 -1,6 -1,8 0,2 0,4 0,6 0,2 1,5 1,7 0,2 -1,5 -1,8 -1,3 -2,6 -1,9 0,2 1,4 2,3 1,0 1,0 2,0 0,-1 0,-1 0,-1 -1,-2 0,-6 1,-9 0,-3 1,-5 1,-8 0,-2 -1,-5 -1,-7 0,-2 0,-4 0,-6 0,-2 0,-5 1,-8 0,-2 1,-4 2,-6 0,-2 1,-3 2,-5 -1,-1 -1,-3 -1,-4 0,-1 0,-2 -1,-2 0,0 -1,1 -2,3 -1,2 -2,4 -2,6 -1,2 -2,4 -2,6 z"
             class="fil5"
             inkscape:connector-curvature="0"
             style="fill:#260b00" />
        </g>
        <path
           style="fill:#3d1201"
           inkscape:connector-curvature="0"
           class="fil1"
           d="m 952,2327 3,-1 c 17,-5 34,-10 51,-15 19,-7 29,8 29,23 0,20 0,40 0,60 0,20 0,41 0,61 0,19 -6,34 -30,34 -16,0 -32,0 -47,0 h -11 c -9,0 -18,0 -27,0 h -15 c -8,0 -16,0 -24,0 h -10 v -6 c -5,4 -12,6 -22,6 -9,0 -18,0 -27,0 -13,0 -21,-3 -26,-10 -5,6 -13,10 -24,10 -11,0 -21,0 -31,0 -8,0 -15,-2 -20,-6 v 6 h -10 c -9,0 -18,0 -27,0 h -14 c -9,0 -18,0 -27,0 h -13 c -16,0 -33,0 -49,0 h -13 c -16,0 -33,0 -49,0 h -15 c -17,0 -34,0 -50,0 h -11 c -9,0 -18,0 -27,0 h -15 c -9,0 -18,0 -27,0 h -9 v -9 c 0,-27 0,-55 0,-83 0,-28 0,-55 0,-83 v -13 l 13,5 c 9,3 18,5 27,8 l 6,2 v 0 l 7,2 c 9,3 18,5 27,7 l 4,1 7,2 c 17,3 34,7 51,10 l 7,1 v 0 l 7,1 c 8,1 17,3 26,4 l 9,1 v 7 c 0,18 0,35 0,52 0,15 0,30 0,44 5,0 10,0 15,0 0,-10 0,-20 0,-30 0,-20 0,-41 0,-62 v -9 h 11 c 9,1 18,2 27,3 l 9,1 v 8 c 0,16 0,33 0,49 0,14 0,27 0,41 5,0 10,0 15,0 0,-9 0,-19 0,-28 0,-20 0,-40 0,-60 v -10 l 10,1 c 9,0 18,1 27,1 h 4 v 0 h 10 c 9,0 18,0 27,0 h 10 v 5 c 5,-3 11,-5 19,-5 11,-1 21,-1 32,-2 8,0 15,2 20,5 v -6 l 9,-1 c 9,0 18,-1 27,-2 h 5 v 0 l 9,-1 c 9,-2 18,-3 27,-4 h 4 l 6,-1 c 8,-2 17,-3 25,-5 l 10,-1 3,-1 c 9,-2 18,-4 27,-6 z m -443,54 h -1 c -6,-1 -11,-2 -17,-3 0,5 0,10 0,15 4,0 8,1 13,1 l 5,1 c 0,-5 0,-10 0,-14 z m 0,54 h -7 c -4,0 -8,-1 -11,-1 0,4 0,8 0,12 6,0 12,1 18,1 v 0 c 0,-4 0,-8 0,-12 z"
           id="path175" />
        <path
           style="fill:#ffffff"
           inkscape:connector-curvature="0"
           class="fil9"
           d="m 374,2480 h 27 v -31 -32 c 5,1 10,1 15,2 v 31 30 h 27 v -73 -73 l -27,-7 v 33 32 c -5,0 -10,-1 -15,-2 v -34 -33 l -27,-9 v 83 z"
           id="path177" />
        <path
           style="fill:#ffffff"
           inkscape:connector-curvature="0"
           class="fil9"
           d="m 454,2408 v 72 h 50 l 5,-24 -28,-1 v -30 l 22,1 v -23 c -8,-1 -15,-2 -22,-2 v -33 c 9,1 19,3 29,4 l -5,-26 c -17,-3 -34,-6 -51,-10 z"
           id="path179" />
        <path
           style="fill:#ffffff"
           inkscape:connector-curvature="0"
           class="fil9"
           d="m 519,2415 v 65 h 49 l 5,-23 h -27 v -53 -52 c -9,-1 -18,-2 -27,-3 z"
           id="path181" />
        <path
           style="fill:#ffffff"
           inkscape:connector-curvature="0"
           class="fil9"
           d="m 581,2418 v 62 h 49 l 5,-22 h -27 v -50 -49 l -27,-3 z"
           id="path183" />
        <path
           style="fill:#e29400"
           inkscape:connector-curvature="0"
           class="fil6"
           d="m 643,2421 v 59 h 27 v -23 -24 h 14 v 24 23 h 27 v -59 -59 c -9,0 -18,0 -27,0 v 25 26 l -14,-1 v -25 -25 c -9,-1 -18,-1 -27,-1 z"
           id="path185" />
        <path
           style="fill:#e29400"
           inkscape:connector-curvature="0"
           class="fil6"
           d="m 751,2382 h 10 c 2,0 3,0 3,2 v 36 37 c 0,2 -1,2 -3,2 l -10,1 c -2,0 -2,-1 -2,-3 v -36 -37 c 0,-1 0,-2 2,-2 z m -29,-5 v 43 44 c 0,9 4,16 19,16 h 31 c 14,0 19,-8 19,-17 v -44 -44 c 0,-10 -6,-16 -18,-15 -11,1 -22,1 -33,1 -12,1 -18,7 -18,16 z"
           id="path187" />
        <path
           style="fill:#e29400"
           inkscape:connector-curvature="0"
           class="fil6"
           d="m 802,2358 v 52 52 c 0,13 5,18 20,18 h 27 c 15,0 21,-5 21,-20 v -54 -55 l -27,3 v 51 51 c 0,1 0,2 -3,2 l -9,1 c -2,0 -2,-1 -2,-3 v -50 -50 z"
           id="path189" />
        <path
           style="fill:#e29400"
           inkscape:connector-curvature="0"
           class="fil6"
           d="m 881,2349 v 66 65 h 24 v -28 -28 l 7,28 8,28 h 27 v -71 -72 l -27,6 v 27 28 l -7,-27 -7,-26 z"
           id="path191" />
        <path
           style="fill:#e29400"
           inkscape:connector-curvature="0"
           class="fil6"
           d="m 958,2334 v 73 73 h 47 c 15,0 20,-7 20,-25 v -61 -60 c 0,-12 -5,-18 -16,-15 -17,6 -34,11 -51,15 z m 26,70 v -50 c 4,-1 8,-2 13,-3 1,-1 2,0 2,2 v 48 49 c 0,2 -1,3 -3,3 l -12,1 z"
           id="path193" />
        <path
           style="fill:#fcaf21"
           inkscape:connector-curvature="0"
           class="fil7"
           d="m 958,2334 v 73 73 h 9 v -73 -31 -42 -2 z"
           id="path195" />
        <path
           style="fill:#fcaf21"
           inkscape:connector-curvature="0"
           class="fil7"
           d="m 881,2349 v 66 65 h 9 v -65 -66 l 16,-3 v -1 z"
           id="path197" />
        <path
           style="fill:#fcaf21"
           inkscape:connector-curvature="0"
           class="fil7"
           d="m 843,2354 v 51 51 c 0,1 0,2 -3,2 h -1 c 0,1 1,1 1,1 l 10,-1 c 2,0 2,-1 2,-2 v -51 -51 l 18,-2 v -1 z"
           id="path199" />
        <path
           style="fill:#fcaf21"
           inkscape:connector-curvature="0"
           class="fil7"
           d="m 802,2358 v 52 52 c 0,13 5,18 20,18 h 9 c -15,0 -20,-5 -20,-18 v -52 -52 l 18,-1 v -1 z"
           id="path201" />
        <path
           style="fill:#fcaf21"
           inkscape:connector-curvature="0"
           class="fil7"
           d="m 722,2377 v 43 44 c 0,9 4,16 19,16 h 9 c -14,0 -19,-7 -19,-16 v -44 -43 c 0,-9 6,-15 18,-16 10,0 20,0 29,-1 -1,0 -3,0 -5,0 -11,1 -22,1 -33,1 -12,1 -18,7 -18,16 z"
           id="path203" />
        <path
           style="fill:#fcaf21"
           inkscape:connector-curvature="0"
           class="fil7"
           d="m 643,2361 v 60 c 0,21 0,39 0,59 h 9 v -59 -60 c -3,0 -6,0 -9,0 z"
           id="path205" />
        <path
           style="fill:#e6e6e6"
           inkscape:connector-curvature="0"
           class="fil11"
           d="m 581,2356 v 62 c 0,22 0,41 0,62 h 9 v -62 -61 z"
           id="path207" />
        <path
           style="fill:#e6e6e6"
           inkscape:connector-curvature="0"
           class="fil11"
           d="m 528,2415 v -65 c -3,0 -6,-1 -9,-1 v 22 1 c 0,0 0,0 0,0 v 43 65 h 9 z"
           id="path209" />
        <path
           style="fill:#e6e6e6"
           inkscape:connector-curvature="0"
           class="fil11"
           d="m 454,2336 v 72 72 h 9 v -72 -70 c -3,0 -6,-1 -9,-2 z"
           id="path211" />
        <path
           style="fill:#e6e6e6"
           inkscape:connector-curvature="0"
           class="fil11"
           d="m 384,2480 v -83 -80 l -10,-3 v 83 83 z"
           id="path213" />
      </g>
    </g>
  </g>
</svg>
